# xmcd
#
# Track frame offsets:
#	150
#	2023
#	14723
#	32117
#	49198
#	65626
#	79990
#	101200
#	119070
#	131778
#	150984
#	166973
#	186346
#	199166
#
# Disc length: 2788 seconds
#
# Revision: 1
# Processed by: cddbd v1.4b42PL1 Copyright (c) Steve Scherf et al.
# Submitted via: CDmax 1.8
#
DISCID=c90ae20e
DTITLE=Shyheim - Manchild
DYEAR=2001
DGENRE=Hip-hop
TTITLE0=Intro
TTITLE1=I Declare War
TTITLE2=Furious Anger (f/ Big L)
TTITLE3=Unconditional Love
TTITLE4=Crime Story
TTITLE5=Verses From The Arsenal
TTITLE6=One Life To Live
TTITLE7=Manchild
TTITLE8=Am I My Brothers Keeper
TTITLE9=Club Scene
TTITLE10=Spectacular
TTITLE11=Twin Glocks
TTITLE12=Trust It's On
TTITLE13=Cease Fire (Wild Flower 2000)
EXTD=
EXTT0=
EXTT1=
EXTT2=
EXTT3=
EXTT4=
EXTT5=
EXTT6=
EXTT7=
EXTT8=
EXTT9=
EXTT10=
EXTT11=
EXTT12=
EXTT13=
PLAYORDER=
